<svg id="Capa_1" enable-background="new 0 0 512 512" height="512" viewBox="0 0 512 512" width="512" xmlns="http://www.w3.org/2000/svg"><g><g><g><g><g><g><g><g><circle cx="256" cy="256" fill="#b180ff" r="256"/></g></g></g></g></g></g></g><path d="m510.516 283.723-64.756-64.756-7.763 8.29-131.397-131.396-9.762 15.726-48.596-48.596-77.428 37.496-40.491 304.273 106.535 106.535c6.32.467 12.703.705 19.142.705 132.018 0 240.696-99.931 254.516-228.277z" fill="#9a4dff"/><g><path d="m324.909 364.534c-90.453 0-163.779-71.663-163.779-160.064 0-61.329 35.293-114.602 87.113-141.479-104.269 2.691-187.968 88.059-187.968 192.976 0 106.614 86.428 193.042 193.042 193.042 82.76 0 153.356-52.08 180.804-125.255-28.979 25.359-67.253 40.78-109.212 40.78z" fill="#ffce00"/></g><g><path d="m324.909 364.534c-55.293 0-104.183-26.782-133.839-67.794l-99.69 64.326c34.425 52.933 94.089 87.943 161.938 87.943 82.76 0 153.356-52.08 180.803-125.255-28.979 25.359-67.253 40.78-109.212 40.78z" fill="#fdba12"/></g><g><circle cx="289.104" cy="115.578" fill="#fff" r="26.366"/></g><g><circle cx="432.655" cy="229.954" fill="#e9edf5" r="17.104"/></g><g><circle cx="312.36" cy="251.534" fill="#e9edf5" r="34.618"/></g></g></svg>