<svg xmlns="http://www.w3.org/2000/svg" width="18" height="18" viewBox="0 0 18 18">
  <g id="search" transform="translate(28 1)">
    <path id="Tracé_2" data-name="Tracé 2" d="M2.25,7.875A5.57,5.57,0,0,1,7.875,2.25,5.57,5.57,0,0,1,13.5,7.875,5.57,5.57,0,0,1,7.875,13.5,5.57,5.57,0,0,1,2.25,7.875Zm13.837,9.788a1.114,1.114,0,0,0,1.575-1.575L14.175,12.6A7.7,7.7,0,0,0,15.75,7.875,7.827,7.827,0,0,0,7.875,0,7.827,7.827,0,0,0,0,7.875,7.827,7.827,0,0,0,7.875,15.75,7.7,7.7,0,0,0,12.6,14.175Z" transform="translate(-28 -1)" fill="#6c5ce7"/>
  </g>
</svg>
